<svg viewBox="0 0 1907 804" fill="none" xmlns="http://www.w3.org/2000/svg">
    <path className="ban_nube_1" opacity="0.25"
        d="M116.31 758.432C115.268 750.227 114.732 741.854 114.732 733.373C114.732 622.937 204.581 533.428 315.414 533.428C334.106 533.428 352.193 535.968 369.347 540.733C387.176 448.476 468.611 378.806 566.397 378.806C601.965 378.806 635.361 388.028 664.331 404.21C679.849 309.146 762.613 236.589 862.393 236.589C934.77 236.589 998.188 274.775 1033.48 332.01C1064.99 311.508 1102.63 299.587 1143.05 299.587C1203.54 299.587 1257.77 326.237 1294.57 368.417C1331.06 330.685 1382.32 307.208 1439.05 307.208C1547.6 307.208 1636.02 393.07 1639.61 500.343"
        stroke="#B6D7E8" strokeWidth="2" strokeMiterlimit="10" />
    <path className="ban_nube_it" fillRule="evenodd" clipRule="evenodd"
        d="M332.011 291.811H201.258C201.323 291.642 201.402 291.443 201.494 291.215C201.825 290.391 202.326 289.191 203.005 287.692C204.363 284.693 206.432 280.496 209.272 275.713C214.955 266.142 223.713 254.243 236.026 244.88C248.332 235.523 264.188 228.7 284.093 229.265C304.005 229.829 328.021 237.788 356.636 258.092L356.917 258.291L357.204 258.099L356.925 257.684C357.204 258.099 357.204 258.099 357.205 258.099L357.207 258.097L357.216 258.091L357.254 258.066C357.278 258.05 357.31 258.029 357.351 258.002L357.405 257.966C357.54 257.878 357.741 257.748 358.004 257.58C358.529 257.246 359.304 256.763 360.296 256.171C362.28 254.986 365.133 253.367 368.606 251.628C375.555 248.148 384.966 244.201 394.844 242.302C404.727 240.401 415.021 240.561 423.79 245.223C432.472 249.838 439.749 258.916 443.626 275.027C442.207 275.721 440.867 276.425 439.627 277.11C436.958 278.584 434.746 279.974 433.201 280.996C432.428 281.507 431.822 281.926 431.408 282.218C431.257 282.324 431.133 282.413 431.034 282.484C395.681 262.382 368.656 267.434 350.454 277.589C342.669 281.932 336.511 287.202 332.011 291.811ZM331.05 292.811H200.533H199.822L200.063 292.142L200.533 292.311C200.063 292.142 200.063 292.141 200.064 292.14L200.065 292.136L200.071 292.119L200.095 292.054C200.116 291.997 200.147 291.913 200.189 291.803C200.273 291.583 200.398 291.26 200.566 290.842C200.902 290.006 201.409 288.793 202.094 287.279C203.465 284.253 205.55 280.022 208.413 275.202C214.134 265.565 222.971 253.551 235.421 244.084C247.878 234.613 263.952 227.693 284.122 228.265C304.219 228.835 328.332 236.841 356.936 257.078C357.069 256.992 357.246 256.877 357.467 256.737C358 256.397 358.782 255.909 359.783 255.312C361.785 254.117 364.66 252.485 368.158 250.734C375.15 247.233 384.652 243.243 394.655 241.32C404.654 239.397 415.21 239.528 424.26 244.34C433.217 249.102 440.608 258.4 444.547 274.583C449.026 272.46 454.213 270.489 459.485 269.52C466.831 268.17 474.418 268.753 480.459 273.67C486.495 278.583 490.874 287.729 492.027 303.237L492.067 303.774H491.529H323.33H322.438L322.904 303.013L323.33 303.274C322.904 303.013 322.904 303.012 322.904 303.012L322.906 303.009L322.912 303L322.933 302.965C322.952 302.935 322.98 302.89 323.017 302.832C323.091 302.716 323.201 302.546 323.348 302.326C323.64 301.887 324.077 301.249 324.657 300.454C325.818 298.864 327.553 296.641 329.856 294.101C330.238 293.679 330.636 293.249 331.05 292.811ZM490.989 302.774H324.251C324.534 302.351 324.939 301.764 325.465 301.044C326.607 299.478 328.32 297.283 330.597 294.773C335.15 289.752 341.95 283.479 350.941 278.463C368.892 268.447 395.639 263.401 430.819 283.513L431.103 283.675L431.366 283.48L431.067 283.079C431.366 283.48 431.366 283.48 431.366 283.479L431.368 283.478L431.375 283.473L431.404 283.452C431.418 283.441 431.435 283.428 431.457 283.413C431.475 283.399 431.497 283.384 431.521 283.366C431.625 283.29 431.781 283.179 431.984 283.035C432.391 282.748 432.989 282.335 433.753 281.83C435.28 280.819 437.469 279.444 440.11 277.985C445.399 275.064 452.471 271.826 459.666 270.504C466.86 269.181 474.103 269.786 479.828 274.446C485.493 279.057 489.785 287.727 490.989 302.774Z"
        fill="#5BA0BA" />
    <path className="ban_nube_dt" fillRule="evenodd" clipRule="evenodd"
        d="M1716.46 134.399H1586.78C1587.07 133.976 1587.47 133.389 1588 132.669C1589.14 131.103 1590.85 128.908 1593.13 126.398C1597.68 121.377 1604.48 115.104 1613.47 110.088C1631.42 100.073 1658.17 95.0267 1693.35 115.138L1693.64 115.3L1693.9 115.105L1693.6 114.704C1693.9 115.105 1693.9 115.105 1693.9 115.105L1693.9 115.104L1693.9 115.1L1693.92 115.085C1693.94 115.072 1693.97 115.052 1694.01 115.025C1694.08 114.971 1694.19 114.892 1694.34 114.789C1694.62 114.583 1695.05 114.284 1695.6 113.912C1696.7 113.169 1698.29 112.136 1700.25 110.98C1704.16 108.668 1709.53 105.872 1715.37 103.92C1721.21 101.967 1727.48 100.874 1733.21 101.922C1738.77 102.938 1743.87 105.975 1747.6 112.29C1744.21 113.58 1741.04 115.087 1738.1 116.727C1728.99 121.81 1722.1 128.161 1717.5 133.239C1717.14 133.634 1716.8 134.021 1716.46 134.399ZM1715.61 135.399H1585.86H1584.97L1585.44 134.638L1585.86 134.899C1585.44 134.638 1585.44 134.638 1585.44 134.637L1585.44 134.634L1585.44 134.625L1585.47 134.59C1585.48 134.56 1585.51 134.516 1585.55 134.458C1585.62 134.342 1585.73 134.171 1585.88 133.951C1586.17 133.512 1586.61 132.875 1587.19 132.079C1588.35 130.489 1590.09 128.266 1592.39 125.726C1596.99 120.648 1603.88 114.297 1612.99 109.215C1631.19 99.0593 1658.21 94.0074 1693.57 114.109C1693.62 114.07 1693.68 114.025 1693.76 113.974C1694.05 113.764 1694.48 113.46 1695.04 113.084C1696.16 112.331 1697.76 111.287 1699.74 110.119C1703.69 107.786 1709.12 104.953 1715.05 102.972C1720.97 100.992 1727.42 99.8476 1733.39 100.938C1739.28 102.014 1744.66 105.262 1748.56 111.937C1766.1 105.572 1789.56 105.069 1818.68 121.622C1818.77 121.551 1818.9 121.462 1819.05 121.356C1819.46 121.064 1820.07 120.645 1820.84 120.134C1822.39 119.112 1824.6 117.722 1827.27 116.248C1832.6 113.303 1839.78 110.008 1847.13 108.658C1854.47 107.308 1862.06 107.891 1868.1 112.808C1874.14 117.721 1878.52 126.867 1879.67 142.375L1879.71 142.912H1879.17H1710.97H1710.08L1710.55 142.151L1710.97 142.412C1710.55 142.151 1710.55 142.15 1710.55 142.15L1710.55 142.147L1710.55 142.138L1710.58 142.103C1710.59 142.073 1710.62 142.028 1710.66 141.97C1710.73 141.854 1710.84 141.684 1710.99 141.464C1711.28 141.024 1711.72 140.387 1712.3 139.592C1713.12 138.472 1714.22 137.037 1715.61 135.399ZM1878.63 141.912H1711.89C1712.18 141.489 1712.58 140.902 1713.11 140.182C1714.25 138.616 1715.96 136.421 1718.24 133.911C1722.79 128.889 1729.59 122.617 1738.58 117.601C1756.53 107.585 1783.28 102.539 1818.46 122.651L1818.75 122.813L1819.01 122.618L1818.71 122.216C1819.01 122.618 1819.01 122.618 1819.01 122.617L1819.01 122.616L1819.02 122.611L1819.05 122.589C1819.06 122.578 1819.08 122.564 1819.11 122.546C1819.12 122.533 1819.14 122.519 1819.16 122.504C1819.27 122.428 1819.42 122.317 1819.63 122.173C1820.03 121.886 1820.63 121.473 1821.39 120.968C1822.92 119.957 1825.11 118.582 1827.75 117.123C1833.04 114.202 1840.11 110.964 1847.31 109.641C1854.5 108.319 1861.74 108.924 1867.47 113.584C1873.13 118.195 1877.43 126.865 1878.63 141.912Z"
        fill="#5BA0BA" />
    <path className="ban_nube_t"
        d="M1319.83 -11.205C1328.74 -22.9781 1338.02 -34.0988 1350.84 -43.1239C1365.27 -53.2857 1380.97 -60.8181 1398.9 -60.9664C1409.84 -61.0553 1420.62 -58.3765 1431.56 -57.8625C1459.28 -56.5577 1485.87 -69.171 1508.6 -85.0266C1531.33 -100.882 1551.54 -120.198 1574.86 -135.174C1589.79 -144.752 1609.32 -152.482 1624.7 -143.625C1631.48 -139.721 1636.28 -133.127 1642.64 -128.57C1661.05 -115.394 1687.36 -122.56 1705.98 -135.44C1724.61 -148.321 1739.65 -166.292 1759.79 -176.661C1771.28 -182.582 1784.66 -185.805 1797.27 -182.958C1809.88 -180.111 1821.33 -170.265 1823.54 -157.563C1826.97 -137.931 1809.24 -121.611 1793.31 -109.551C1760.72 -84.8685 1725.34 -59.1278 1684.44 -57.3485C1658.37 -56.2117 1631.57 -65.0391 1606.59 -57.5363C1564.34 -44.8439 1543.81 9.33614 1500.62 18.4205C1480.04 22.7502 1458.82 15.5637 1437.81 16.1766C1403.4 17.175 1373.57 38.4872 1343.19 54.5998C1312.81 70.7124 1274.1 81.6848 1245.28 62.9329C1245.98 63.3777 1252.03 58.969 1252.64 58.5835C1273.62 45.1794 1290.67 26.8821 1305.86 7.38875C1310.71 1.16117 1315.23 -5.09605 1319.84 -11.1852L1319.83 -11.205Z"
        stroke="#5BA0BA" strokeMiterlimit="10" />
    <path className="ban_st_1"
        d="M1246.5 247.592L1244.44 247.611C1244.34 237.954 1236.37 230.184 1226.68 230.283L1226.66 228.227C1236.35 228.128 1244.15 220.19 1244.05 210.532L1246.11 210.513C1246.21 220.17 1254.18 227.94 1263.87 227.841L1263.89 229.897C1254.2 229.996 1246.4 237.934 1246.5 247.592ZM1232.96 229.186C1238.75 231.074 1243.39 235.591 1245.4 241.324C1247.29 235.552 1251.83 230.935 1257.58 228.929C1251.79 227.041 1247.16 222.523 1245.14 216.78C1243.24 222.553 1238.71 227.169 1232.95 229.176L1232.96 229.186Z"
        fill="#F0DF72" />
    <path className="ban_st_1"
        d="M516.673 223.829L514.609 223.849C514.51 214.191 506.543 206.421 496.85 206.52L496.83 204.464C506.523 204.365 514.322 196.427 514.222 186.77L516.286 186.75C516.385 196.408 524.352 204.177 534.045 204.078L534.065 206.135C524.372 206.233 516.574 214.171 516.673 223.829ZM503.13 205.423C508.924 207.311 513.558 211.828 515.572 217.562C517.467 211.789 522.001 207.173 527.755 205.166C521.961 203.278 517.328 198.76 515.314 193.017C513.409 198.79 508.885 203.406 503.12 205.413L503.13 205.423Z"
        fill="#F0DF72" />
    <path className="ban_st_1"
        d="M1369.45 387.999L1367.38 388.018C1367.29 378.361 1359.32 370.591 1349.63 370.69L1349.61 368.634C1359.3 368.535 1367.1 360.597 1367 350.94L1369.06 350.92C1369.16 360.578 1377.13 368.347 1386.82 368.248L1386.84 370.304C1377.15 370.403 1369.35 378.341 1369.45 387.999ZM1355.91 369.593C1361.7 371.481 1366.33 375.998 1368.35 381.732C1370.24 375.959 1374.78 371.342 1380.53 369.336C1374.74 367.448 1370.1 362.93 1368.09 357.187C1366.18 362.96 1361.66 367.576 1355.9 369.583L1355.91 369.593Z"
        fill="#F0DF72" />
</svg>