<svg height="1176" viewBox="0 0 839 1176" width="839" xmlns="http://www.w3.org/2000/svg"><g fill="none" fillRule="evenodd" transform="matrix(-1 0 0 1 781 99.9994)"><g transform="translate(135.4677 286.5806)"><path d="m57.9068425 0-8.1152763 32.7149784c3.6522617 24.628709 4.8490261 57.2418679-4.1492997 80.4631486l-22.9928525 88.713102s2.3173593 19.639556 27.3448405 13.469812c0 0 47.5284596-83.397869 54.1616585-105.011948 6.631908-21.6127913-2.684005-105.64219858-2.684005-105.64219858z" fill="#89d2f6"/><path d="m50.8572933 212.954493s-1.4201088 15.771705 1.4678761 20.755703c2.8866939 4.98271-1.3503943 15.360561-1.3503943 15.360561s-3.1565146 11.799458-.9953672 14.643958c2.1611474 2.845789-10.00273 2.196207-8.6523356-13.165642 1.3491033-15.360561-1.4924053-11.417957-2.5626509-11.055789-1.0702457.362168-10.6249959 19.694976-11.2963201 28.268432-.6700331 8.572168.1136088 21.422041.1136088 21.422041s-2.095306 9.653515-7.4878465 4.325393c0 0-5.0865715.733358-6.6835484-4.789381 0 0-4.42815745.206217-6.24460571-5.139949 0 0-6.79973916-.679226-6.48344219-8.536079.31629696-7.856854-3.0003026-26.407328 2.65302144-39.647724 5.65203304-13.240396 20.17716406-35.911336 20.17716406-35.911336z" fill="#89d2f6"/><g fill="#00a2bd"><path d="m19.8217191 293.227923c-1.3387753-3.111294-2.2967032-6.392716-2.8699107-9.754047-.5848267-3.354886-.7629858-6.833503-.2633657-10.263143.5189852-3.387108 1.3929977-6.682708 2.4658253-9.898398 1.0741187-3.216979 2.3599626-6.359205 3.8794791-9.385434-.9850391 3.237601-1.8964908 6.476491-2.7756672 9.712803-.8404463 3.246623-1.6357072 6.500979-2.1120891 9.786267-.5022022 3.245334-.3989215 6.577022-.0593864 9.889376.3718103 3.313644.9385628 6.627287 1.7351147 9.912576"/><path d="m13.0857558 288.621559c-1.3387753-3.111294-2.2967033-6.392716-2.8712018-9.754046-.58353563-3.354887-.76169473-6.832215-.26207464-10.263144.51898524-3.385819 1.39170664-6.681419 2.46582524-9.898398 1.0741187-3.216979 2.3599627-6.357916 3.8781881-9.384145-.9837481 3.236312-1.8964908 6.475202-2.7743762 9.711514-.8404462 3.246623-1.6357071 6.502268-2.1133801 9.786268-.5022021 3.245334-.3976305 6.577021-.0580954 9.889375.3692283 3.313644.9385628 6.627287 1.7351148 9.912576"/><path d="m6.34992153 284.015582c-1.3387753-3.111294-2.29670324-6.392716-2.8712018-9.754047-.58353562-3.354886-.76169472-6.833503-.26207462-10.263143.51769421-3.387108 1.39170662-6.682708 2.46582528-9.898398 1.07282765-3.216979 2.35996263-6.357916 3.87818804-9.385434-.98374809 3.237601-1.89649075 6.476491-2.77695821 9.714092-.83786419 3.245334-1.63441613 6.500979-2.11079809 9.784978-.50220211 3.245334-.39892147 6.577022-.05809536 9.889376.36922829 3.313644.93856282 6.627287 1.73511476 9.912576"/></g></g><g transform="translate(0 720.0006)"><path d="m109.436711 147-9.436711-3.757543 57.563289-143.242457 9.436711 3.75754328z" fill="#00a2bd"/><g transform="translate(0 107.6795)"><path d="m137.839634 31.9429549-59.7013746-31.9429549-18.3555518 41.6789572s-54.48957479 1.9062149-59.7827076 13.928644c0 0 59.1875529 37.4579607 106.77669 46.8678828z" fill="#8966ad"/><path d="m8.29033699 49.5282063s51.47507111 36.9295306 101.75596001 45.5261861" stroke="#4b4495" strokeLinecap="round" strokeLinejoin="round" strokeWidth="3"/><g fill="#4b4495"><path d="m80.1129852 39.5964271-9.517311-13.8216692c-.7526576-1.0929481-.4725089-2.6009071.6209749-3.3510201l.3356621-.229416c1.0934838-.7514018 2.6039631-.4717205 3.3540388.6199387l9.519893 13.822958c.7500756 1.0929481.4712179 2.5996183-.6222659 3.3497313l-.334371.229416c-1.0934838.7514018-2.6039632.4717205-3.3566209-.6199387"/><path d="m85.9150334 28.6070144-13.8447698 9.5014309c-1.0947748.7514018-2.6052542.4717205-3.3566208-.6199388l-.2297995-.3338131c-.7526576-1.0916593-.4725089-2.5996183.6209749-3.3497313l13.8460608-9.5027197c1.0947748-.750113 2.6039632-.4717206 3.3566208.6199387l.2285085.3338131c.7526576 1.0916593.4725089 2.5996183-.6209749 3.3510202"/></g></g></g><g transform="translate(137.9561 220.536)"><path d="m158.937112 334.799003s-93.4044291 124.681148-116.8762456 180.386702c-3.5244518 8.364662-15.3139369 8.849271-26.4514629.653449-.3769744-.278393-.7552397-.559363-1.1347961-.845488-10.28675174-7.733124-16.28993896-20.004302-13.98290766-28.438562 8.50257871-31.088444 34.62483466-116.895181 88.69095886-221.026843z" fill="#0e3875"/><path d="m109.549859 280.304456s37.354026 299.844125 26.030594 365.671049c0 0 27.927086 9.244949 51.030965 1.005306 0 0 23.851373-153.032067 19.296696-386.538883z" fill="#164290"/><path d="m186.521434 278.276831s7.418132 289.323211-19.155976 380.876947" stroke="#0099d0" strokeWidth="3"/><path d="m195.24413 641.311658-67.314448-7.521751-1.5363 45.504275s-49.881967 21.974959-50.3247827 35.100647c0 0 68.8894777 12.830541 116.5754407 3.921982z" fill="#a88dc1"/><path d="m81.5045176 705.675604s61.5320234 15.200742 111.4139904 4.538054" stroke="#4b4495" strokeLinecap="round" strokeLinejoin="round" strokeWidth="3"/><path d="m144.494218 669.822653-13.979035-9.304237c-1.105102-.734646-1.405907-2.238739-.670033-3.341998l.225927-.336391c.735874-1.103259 2.242481-1.403562 3.346292-.668915l13.980326 9.304236c1.103812.735936 1.404617 2.23874.668742 3.341999l-.225926.33639c-.735875 1.103259-2.24119 1.403562-3.346293.668916" fill="#4b4495"/><path d="m145.792843 657.467957-9.319787 13.95571c-.735874 1.103259-2.242481 1.403562-3.347583.668915l-.336954-.22426c-1.103811-.734647-1.405907-2.23874-.670033-3.341999l9.319787-13.95571c.737166-1.103258 2.242481-1.403561 3.348875-.668915l.335662.22555c1.105103.734646 1.405908 2.23745.670033 3.340709" fill="#4b4495"/><path d="m116.986065 0-1.519516 6.92887853c5.318953 10.58793477 13.929976 15.10407877 25.037809 12.92462687 7.551106-1.482182 14.204961-5.9068174 19.186961-11.76208066l6.883655-8.09142474s76.546446 15.7304618 105.468898 80.4631486l-52.888725 49.7910034-16.70177-16.315601 13.918357 163.547826s-141.9644038 24.599065-164.2330009 0l21.5017383-162.515454-35.4200956-11.192408s-.0219471-94.58640903 78.7656892-103.778515" fill="#a88dc1"/><g fill="#0e3875"><path d="m38.3175887 93.5004212c7.7834873 5.3938536 16.6410932 9.2913478 25.8808375 11.3870238 2.6827146.608339 5.3951224 1.050416 8.1256043 1.37263 1.0405525.122441 1.9365121-.976951 1.9365121-1.933281 0-1.14708-.8920866-1.81084-1.9365121-1.933281-11.4912622-1.357163-22.5577828-5.6529131-32.0518556-12.2312234-.8598114-.5967393-2.1508194-.158529-2.6491485.6934034-.5628795.961485-.16654 2.0479889.6945623 2.6447282"/><path d="m211.780393 121.608649c8.607151-5.152838 16.70048-11.173074 24.122485-17.917647 7.394894-6.7200839 14.092643-14.1786814 20.032571-22.2082411 3.325637-4.4955224 6.393072-9.1792175 9.191977-14.0201527 1.247114-2.1588302-2.097888-4.1075773-3.345002-1.9513248-4.85419 8.3994609-10.523006 16.3117349-16.941898 23.5911817-6.436966 7.3026462-13.585277 14.0201529-21.33778 19.9179479-4.382972 3.334265-8.951849 6.42107-13.676939 9.250105-2.135327 1.277254-.191069 4.62183 1.954586 3.338131"/><path d="m105.477503 3.23682767c-2.443878 6.54351121-.866266 14.05108513 2.975774 19.73106423 4.16221 6.1516997 10.754096 10.0169725 17.926937 11.6576835 14.052622 3.2156904 29.460803-.9460188 41.1767-8.9704231 6.555739-4.490367 12.178079-10.250255 16.384183-16.9935386 1.320701-2.1188758-2.028174-4.06246747-3.343711-1.95261364-6.815231 10.92690334-17.748778 19.14592454-30.049502 22.88102314-12.157423 3.6912776-28.327298 3.687411-37.317878-6.7007514-4.413956-5.0999948-6.389198-12.2776222-4.017616-18.62393873.365355-.97952895-.407959-2.1188758-1.352977-2.37922428-1.084447-.2964364-2.015263.36861221-2.38191 1.35071888"/></g></g><g transform="translate(172.8301)"><path d="m87.1480409 179.265104c-25.2392064 9.403478-48.7600812 11.836834-58.725372 7.182783-24.9358196-11.704082-9.3210778-107.9402249 18.0302178-141.945346 27.3590416-33.9986769 134.7941453-30.9208938 126.0320743 44.9075362-3.053234 26.3145298-18.377499 47.4401338-38.017604 63.3433018l-2.766372 67.782631c-8.884666 12.962726-18.569187 19.928271-29.053562 20.896634-14.1852103 1.310182-22.0548625-12.352521-22.0548625-13.967755 0-1.076823.5065055-3.386449 1.5195164-6.928879z" fill="#89d2f6"/><path d="m147.290682 66.7437771c-5.782425 22.572987-.951473 47.6231509 12.813254 66.4391289 15.355249-17.502635 31.747178-38.2699383 28.340208-61.2875799-1.612469-10.8933931-7.920334-21.0134739-16.997412-27.2708596 4.111861-16.4019546-7.841582-33.6687302-23.421467-40.29601694-15.581175-6.62728672-33.501658-4.74813774-49.8522739-.34283513-16.3519074 4.40659146-32.0647658 11.20400687-48.717478 14.28307887-16.6527123 3.0803608-35.1192907 1.9384362-48.66196469-8.2138659-3.83300276 19.8341726 6.613834 40.6800954 22.83405859 52.7553676 16.2189335 12.0752721 37.2223427 16.3220457 57.4459831 15.684063 20.2223489-.6379827 39.9993009-5.777932 59.5748549-10.8882377" fill="#1b2b4e"/><path d="m174.213621 140.569715c-6.65902 14.021441-19.04495 22.081933-27.66372 18.002711-8.618769-4.080512-10.206709-18.754113-3.54769-32.775555 6.659019-14.02273 19.04495-22.081933 27.66372-18.002711 8.618769 4.079223 10.206709 18.754113 3.54769 32.775555" fill="#89d2f6"/></g></g></svg>