<svg height="1176" viewBox="0 0 839 1176" width="839" xmlns="http://www.w3.org/2000/svg"><g fill="none" fillRule="evenodd" transform="matrix(-.93358043 .35836795 .35836795 .93358043 376.059822 366.390012)"><path d="m24.3489004 3.61305704s-3.7816541 6.15414232-8.589644 8.03300586c-4.8067849 1.8800649-7.63855846 11.4954254-7.63855846 11.4954254s-4.3826214 10.008192-7.48552216 10.7962575c-3.10410578.7880655 5.77922799 7.0997977 13.41778642-4.3956277 7.6385584-11.4954254 7.4264767-7.157461 7.9735512-6.3081282.5470746.8481315-3.5644196 19.6848198-7.8855855 26.0542153-4.32116585 6.3693955-12.05010003 14.9215883-12.05010003 14.9215883s-3.92712761 7.9166949 2.82695347 7.1886954c0 0 3.15351119 3.3432719 7.35779106.368805 0 0 2.9872198 2.6056618 7.2469302-.1225346 0 0 5.1417777 3.3072324 9.3111123-2.3641966 4.1693347-5.6714289 16.859295-16.8016532 20.2983936-29.2076787 3.4390985-12.4048242 6.8679915-27.3226125 6.8679915-27.3226125-2.4747887-5.65254092-5.9628464-9.23954205-10.464173-10.76100339-15.6242267-5.28103359-21.1869266 1.62378893-21.1869266 1.62378893z" fill="#89d2f6"/><g fill="#00a2bd"><path d="m5.27912319 70.879117c2.7153249-1.4184653 5.25704501-3.1641773 7.57014491-5.1776364 2.3167675-2.0015593 4.4171404-4.3137054 6.005257-6.964998 1.5526622-2.6334427 2.7984596-5.3977841 3.8596491-8.216865 1.0611896-2.8214608 1.9292133-5.7059909 2.564949-8.6405006-1.1345437 2.7857612-2.324103 5.5334428-3.5344459 8.2597046-1.2445748 2.7119819-2.5233816 5.4049241-4.0479247 7.9431678-1.4829757 2.5251539-3.4451983 4.7778006-5.5639097 6.8852688-2.14316283 2.0908083-4.42569844 4.0745178-6.85371971 5.9118588"/><path d="m12.88929 71.1712826c2.7153249-1.4185817 5.2570451-3.1644369 7.5701449-5.1768713 2.3167675-2.0029136 4.4159178-4.3140594 6.005257-6.9667596 1.5514396-2.6324689 2.7996822-5.3970371 3.8596492-8.2175394 1.0611895-2.8216924 1.9279907-5.7064593 2.5649489-8.6388297-1.1345437 2.7836097-2.3228803 5.5315168-3.5344458 8.2580023-1.2445749 2.7122046-2.5246042 5.4065578-4.0467022 7.9450099-1.4841983 2.5253611-3.4464209 4.7770026-5.5651323 6.8846438-2.1419402 2.09217-4.4256984 4.0748523-6.8537197 5.912344"/><path d="m19.5658764 71.8218162c2.715159-1.4185235 5.2567237-3.1643071 7.5696822-5.1766588 2.3166259-2.0028315 4.4168704-4.3150725 6.00489-6.9664738 1.5525672-2.6323608 2.799511-5.3980057 3.8594132-8.2172022 1.0623472-2.8203866 1.9278728-5.7062251 2.5660146-8.6396652-1.1356968 2.7846855-2.3239608 5.5324798-3.5342298 8.2600435-1.2457213 2.7109032-2.5244499 5.4051459-4.0476773 7.9434938-1.4841075 2.5252575-3.4449877 4.7768066-5.5647921 6.8843613-2.1418093 2.0920842-4.4254279 4.074685-6.8533008 5.9121014"/></g></g></svg>