<svg height="1176" viewBox="0 0 839 1176" width="839" xmlns="http://www.w3.org/2000/svg" xmlns:xlink="http://www.w3.org/1999/xlink"><mask id="a" fill="#fff"><path d="m154.237698 0h92.074941s106.50036 64.6081733 152.66686 396.882463c46.179402 332.27429 27.70248 426.375256 27.70248 426.375256s-168.072896 18.505535-212.394284-83.023437c0 0-38.089298-79.373913-43.056906-164.293039 0 0-50.69541 186.435202-163.58269473 238.12174 0 0-40.85051357-622.082569 66.26918443-801.1413483z" fill="#fff" fillRule="evenodd"/></mask><g fill="none" fillRule="evenodd"><g transform="translate(86 487)"><path d="m6.42946788 345.286476 8.58174162-19.243488c1.2241223-2.760125 2.6415271-5.455761 4.4454968-7.880544 18.2329797-24.492885 57.5724051-20.172128 69.1951242 9.583051 4.9609168 12.717211 7.0999094 26.37596 6.2494666 40.008914l-31.4406151 503.245591" stroke="#1b2b4e" strokeLinecap="round" strokeLinejoin="round" strokeWidth="7"/><g fill="#89d2f6" fillRule="nonzero"><path d="m11.970232 330.595904c-.2834809-.361138-.1932825-.915742.077313-1.27688.2705955-.374036.6958169-.593298 1.0952673-.81256 8.1436348-4.320757 16.6996054-7.803157 25.1524921-11.466127.7087024-.309547 1.4947178-.69648 1.7653132-1.418756.7473589-2.063645-1.7266567-1.85728-2.8348095-1.483245-1.7395423.593298-3.4790845 1.186596-5.2315122 1.754099l-5.8500161 1.895973c-1.6235727.528809-3.8527639 1.741201-5.5536496 1.792792-4.7547488 1.534836-10.4887954 4.501325-15.5785671 3.817743-.70870239-.090285-1.43029028-.593298-1.53337426-1.302676-.16751147-1.096311 1.04372534-1.844383 2.06167968-2.282907 4.41972581-1.895974 8.85233708-3.791948 13.27206288-5.687921 2.2549622-.967334 4.5228098-1.934667 6.7906575-2.914899 1.4689468-.631991 4.1233593-1.212391 5.1155427-2.592453.3607939-.503014.4123359-1.276881-.0644275-1.676712-.4381069-.374036-1.0952673-.257956-1.6493437-.11608-3.0023211.748071-6.0690696 1.354267-9.0456196 2.179725-2.2034202.619093-4.4583823 1.006027-6.6875735 1.573529-3.90430588.980231-7.37050484 2.515067-11.50674969 2.218418-.6442749-.051591-1.37874829-.193466-1.66222924-.773866-.21905347-.438525-.06442749-.99313.24482446-1.380063s.74735888-.631991 1.17258032-.864151c8.24671871-4.47553 17.13771235-7.5581 25.73233945-11.208171.3994505-.167671.8762139-.451423.8246719-.889947-.051542-.5804-.8633284-.619094-1.4302903-.490116-4.2650998.967334-8.5301996 1.921769-12.808185 2.889103-2.3451606.528809-7.5509018 2.128134-9.67700897.167671-1.2370078-1.135005.41233594-1.341369 1.44317578-1.728302 1.43029028-.528809 2.87346605-1.070516 4.30375633-1.599325 2.86058056-1.070516 5.73404656-2.141032 8.59462716-3.19865 1.4302903-.528801 2.873466-1.070515 4.3037563-1.599324 13.4009179-4.991441 26.7502938-9.505665 38.682265-17.734448 3.5950539-2.476374 7.9632377-5.146215 10.5403373-8.783389 2.3451607-3.288934 6.3396651-11.930446 11.9835132-25.91164.3865649.051591.7860153.077386 1.1854658.090284.9792978 1.380063 2.1905346 2.644045 3.6079394 3.688765 3.4533135 2.579556 6.7906575 5.300988 10.0764594 8.099806 1.4431761 1.534836 3.1054051 2.979388 4.8964891 4.24337 2.705955 2.373192 5.399024 4.785077 8.079207 7.184064-4.174901 8.086908-6.777772 12.975167-7.757069 14.561594-7.2931922 11.994935-1.649344 32.115472 2.177649 45.748426.592733 2.102338 1.146809 4.062801 1.597802 5.816899-8.8523376 2.334498-12.0221701-2.798818-15.4497125-8.228784-3.337344-5.365476-6.8937415-10.963113-16.248613-9.879699-.077313.012897-.1675115.025795-.25771.038693-1.9972522.425627-4.0460463 1.263982-6.0432985 1.85728-2.5770996.760969-5.1155427 1.547734-7.7055278 2.27001-2.9250081.81256-5.8757871 1.341369-8.7492532 2.257111-3.8012219 1.199494-7.5251308 2.515067-11.2748107 3.89513-3.6594814 1.341369-7.6539858 2.398987-11.1588413 4.088596-5.7727031 2.115236-11.4036657 4.643201-17.5629337 5.442863-.5283054.064489-1.1468093.090285-1.4818323-.309546"/><path d="m206.346681 0-122.3091473 239.718144 27.8584463 23.306289 94.231647-152.567843c12.331422-19.5659324 22.89753-40.189483 31.595241-61.6255939l14.277132-35.1722468-45.666205-13.6587493z"/></g></g><g transform="translate(222 89)"><g fillRule="nonzero"><path d="m9.44288468 1062.08652s190.53680832 148.50853 417.24038532 104.70135l-208.626644-283.734337-208.6266442 179.032987z" fill="#1b2b4e"/><path d="m201.657067 860.098932s-63.495066 348.948618-80.965563 364.900778c-17.535012 16.01663-82.3590742 49.88112-105.5584499 44.12957-23.21227854-5.73865 31.1217432-35.87624 44.5536398-50.84831s28.0121494-18.63449 28.799225-60.94575c.7870756-42.23389-16.6189076-282.496339-16.6189076-282.496339l130.0997247-20.41412-.309669 5.687067z" fill="#89d2f6"/><path d="m341.525561 869.31946s-63.495065 348.94862-80.965563 364.90077c-17.535012 16.01664-82.359074 49.88112-105.55845 44.12958-23.212278-5.73865 31.121743-35.87624 44.55364-50.84831 13.431897-14.97208 28.012149-18.63449 28.799225-60.94576.787076-42.23388-16.618908-282.496331-16.618908-282.496331l130.099725-20.41412-.309669 5.687067z" fill="#89d2f6"/><path d="m125.221705 406.307114 120.345148-1.921481-25.096099-191.039017c19.754307-24.747123 22.102631-39.474176 19.780113-73.390243-6.735303-97.5828434-135.157653-75.9436189-159.9182771-26.320415-24.760624 49.610308-24.0896743 179.535926 8.2320366 188.214828l9.0707236 2.308356-18.7865912 100.381242 46.3729461 1.779626z" fill="#89d2f6"/><path d="m266.225652 223.220963c12.662885-15.420849 13.682212-35.507414 2.274777-44.865928-11.407434-9.357223-30.920458-4.443907-43.584633 10.975652-12.664175 15.41956-13.682213 35.506125-2.274778 44.864638 11.406145 9.358513 30.920459 4.445197 43.584634-10.974362z" fill="#89d2f6"/><path d="m220.635911 169.178354c4.670842 5.828921 12.348055 8.782069 19.470444 7.479588 7.122389-1.30248 13.420284-6.796109 15.987957-13.940406 14.154458 4.861733 30.939812-8.49836 30.475309-24.244185-.477407-15.745824-18.038225-27.932395-31.87011-22.129266 10.077148-8.330715 13.820273-24.2054974 8.620413-36.5597149-5.19986-12.3671134-18.851106-20.04014-31.444315-17.6802007.890298-16.5840541-7.768824-33.34865-21.432972-41.5117186-13.664148-8.1759644-31.702373-7.3635263-44.656863 2.0117515-7.303029-15.10103208-23.998064-24.45051823-39.868604-22.29691245-15.870541 2.15360577-29.8314556 15.61686585-33.2894271 32.16223235-10.5674575-1.4830219-21.4316813-2.953148-31.7926928-.2837085s-20.2446165 10.4714245-22.5542318 21.4844744c-2.3096152 11.0130499 5.921131 24.0894346 16.553103 23.3414757-13.1351304-.4642503-25.3541565 12.2252592-25.1628821 26.1269782.195812 13.901718 12.7503129 26.217248 25.8725404 25.353227-5.4450148 4.255628-4.4631057 14.120948.8399774 18.570014s13.1080343 4.152461 19.2627074 1.14773c6.1417702-3.004732 11.0203486-8.25334 15.7298993-13.385885-2.7225074 13.334302 10.9403503 25.262956 23.8303263 25.237165 12.889976-.025792 24.412246-7.982527 35.084217-15.655554-2.528964 8.330715 3.754738 18.286306 11.999677 18.982681 8.24494.709271 15.959571-8.047006 14.720895-16.700117 3.199913 17.925222 25.226418 28.667459 40.180854 19.614578" fill="#e8edc3"/><path d="m237.747709 269.559595c4.731485 0 8.567511-10.155476 8.567511-22.683788 0-12.528311-3.836026-22.683787-8.567511-22.683787-4.731486 0-8.567512 10.155476-8.567512 22.683787 0 12.528312 3.836026 22.683788 8.567512 22.683788z" fill="#164290"/><path d="m154.237698 343.543046h92.074941s106.50036 64.608174 152.66686 396.882464c46.179402 332.27429 27.70248 426.37526 27.70248 426.37526s-168.072896 18.50553-212.394284-83.02344c0 0-38.089298-79.37391-43.056906-164.293041 0 0-50.69541 186.435201-163.58269473 238.121741 0 0-40.85051357-622.082569 66.26918443-801.141349l36.7086893-5.906296z" fill="#1b2b4e"/><path d="m426.68327 1166.80077s-168.072897 18.49263-212.407188-83.02344c0 0-.051611-.11606-.154834-.34819h-.012903c-2.761216-5.86761-38.115104-82.35285-42.876266-163.944851 0 0-.787075 2.901565-2.399935 8.09859-28.86374-195.101209-35.715168-491.91193-37.147388-580.403205l2.412839-.386875 20.141393-3.223961h92.074942s106.487457 64.608173 152.666859 396.882463c46.1665 332.261399 27.689578 426.362359 27.689578 426.362359z" fill="#164290"/></g><g mask="url(#a)" stroke="#9188bc" strokeWidth="2" transform="translate(0 343.543)"><g transform="translate(-79.756 -52.6666)"><path d="m4.399882 463.231575 595.067857 6.873485"/><path d="m3.743125 520.734139 595.067858 6.873484"/><path d="m10.930029 57.618626 595.067857 6.873485"/><path d="m10.259079 115.12119 595.067857 6.860589"/><path d="m7.728824 175.731652 595.067858 6.873484"/><path d="m7.059165 233.234216 595.08076 6.873484"/><path d="m6.23209 294.786074 595.067858 6.873485"/><path d="m5.728878 348.226448 595.067858 6.873484"/><path d="m5.070831 405.729012 595.067858 6.873484"/><path d="m3.072175 578.236703 595.067858 6.873484"/><path d="m2.414129 635.726371 595.067857 6.873484"/><path d="m3.614096 690.108141 595.067858 6.873484"/><path d="m2.414129 744.502806 595.067857 6.873485"/><path d="m227.413235 1.199313-10.657778 922.24621"/><path d="m175.428828.593209-10.657778 922.259106"/><path d="m487.328821 4.191149-10.67068 922.259106"/><path d="m435.344414 3.59794-10.670681 922.24621"/><path d="m383.357426 2.991836-10.657778 922.24621"/><path d="m331.385921 2.398627-10.670681 922.24621"/><path d="m279.398933 1.792522-10.670681 922.24621"/><path d="m123.454742 0-10.67068 922.24621"/></g></g><path d="m62.9124135 338.01073s188.3046105-2.772607 210.0072515-16.609846c0 0 42.063385 56.354834 35.560334 84.919126 0 0-249.335226 29.53148-272.8829794 0l27.3153939-68.296384z" fill="#fbbe3f" fillRule="nonzero"/><path d="m183.813676 378.361822s88.629873 282.54792 139.905913 302.987831c0 0 89.094376-13.914615 79.868818-41.576198 0 0-129.738444-190.600559-143.583233-261.424528h-76.191498z" fill="#fbbe3f" fillRule="nonzero"/><path d="m366.877137 729.416328c6.238542-3.600519 1.83995-22.888831-9.825542-43.083721-11.664202-20.193601-26.179941-33.645255-32.418482-30.044735-6.239833 3.600519-1.839951 22.888831 9.824251 43.082432 11.665493 20.19489 26.179941 33.646544 32.419773 30.046024z" fill="#fbbe3f" fillRule="nonzero"/><path d="m401.416853 721.56405c6.239832-3.60052 1.84124-22.888832-9.824252-43.083722-11.665493-20.193601-26.179941-33.645254-32.419773-30.044735-6.238542 3.600519-1.83995 22.888832 9.825542 43.082432 11.665493 20.19489 26.179941 33.646544 32.418483 30.046025z" fill="#fbbe3f" fillRule="nonzero"/><path d="m431.965708 699.641117c5.734039-4.358795-1.068358-22.937836-15.19443-41.496244-14.124781-18.559697-30.223703-30.070527-35.957742-25.710442-5.734039 4.358795 1.068359 22.937836 15.19314 41.496244 14.126071 18.559697 30.224993 30.070526 35.959032 25.710442z" fill="#fbbe3f" fillRule="nonzero"/><path d="m144.676665 686.559574c-.85159-.232126-1.741889-.502938-2.632187-.812439-29.057283-9.95559-44.9794351-42.272573-45.1987841-56.483792-6.5159537-5.132545-39.6892545-32.394357-36.5796608-35.411985 3.0708851-2.966043 1.7418887-2.772606 37.5344739 20.955745-9.1739467-6.370546-33.057175-26.694395-29.7798438-29.363834 3.393457-2.772606 33.3539408 22.206641 35.1345388 23.676767-1.716083-1.702251-29.908873-29.338042-28.5540707-30.447085 1.3935108-1.134834 4.1934355-7.440901 32.4378367 18.299201-18.1156415-19.227701-25.2122247-42.646552-11.1867957-25.907748 14.7479907 12.431593 32.0765557 32.368566 46.7471287 50.667767.554824 21.303933 1.25158 43.007636 2.077364 64.827403z" fill="#89d2f6" fillRule="nonzero"/><path d="m64.4091475 80.1970371c3.8579607 6.8863801 12.4899864 5.2228164 18.8640085 3.9848154 6.7223997-1.315376 13.5867311-2.9015646 19.534958-6.4350256 5.380501-3.1981691 10.412623-8.3436104 10.89003-14.8946986.438698-6.0094629-4.012796-11.1291125-9.573936-12.818468-5.974033-1.805418-12.670627 1.0058758-15.6899006 6.4479215-3.2128168 5.7773377-1.5483454 12.9474264 3.5999031 16.9580335 5.1482486 4.0106072 11.9738715 4.9133162 18.1930585 5.2357123 7.341738.3739794 14.812505-.657688 21.780059-3.0047314 14.38671-4.8230453 26.528319-15.2428864 33.586193-28.6545631 1.161259-2.2051892-2.180586-4.1653573-3.341845-1.9472723-11.019059 20.9557448-35.108733 33.4131291-58.643583 28.989855-4.6966482-.8769173-10.2835946-2.7726062-12.2835408-7.556964-2.1805865-5.2486081 1.0193274-11.1678 6.3353134-12.7797804 4.3740754-1.3282718 9.5610334.9413966 11.5093674 5.1067538 2.348324 5.0422746-1.458025 10.4198412-5.251471 13.4890518-4.9805114 4.0106072-11.3287277 5.8934002-17.4704979 7.2732554-3.3934571.7608548-6.9159429 1.6248762-10.3868173 1.9085848-3.1095937.245021-6.6449825-.2708127-8.2965509-3.2368566-1.2128706-2.1793975-4.5547162-.2192293-3.3418456 1.9472723z" fill="#89d2f6" fillRule="nonzero"/><path d="m202.586074 67.2367149c-5.19986 1.9859598-9.044918 6.5897757-10.180371 12.0576131-1.135453 5.4678375.683853 11.2709668 4.464396 15.526595 4.038601 4.5393367 9.999731 6.937963 16.038278 6.873484s13.006102-2.3470431 17.109217-6.9895466c3.767641-4.2556282 4.580522-11.5159878-.787075-14.9204903-4.761163-3.0176273-11.148088-.7350631-15.251203 2.3341476-9.586839 7.1700886-12.748044 20.4141193-8.373968 31.3884813 5.29018 13.269823 19.638181 20.646245 33.547484 17.228847 2.412838-.593209 1.393511-4.320108-1.03223-3.726899-9.715868 2.385731-20.43816-1.366959-26.141232-9.671882-5.470821-7.956735-6.064353-18.5055349-.76127-26.707291 2.37413-3.6753152 6.077256-6.976651 10.39972-8.047006 1.870918-.4642503 4.16763-.5416254 5.806296.6318963 1.845111 1.3282718 2.141877 3.8042737 1.522539 5.8547127-1.432219 4.7198785-7.290126 7.2603596-11.677105 8.2533395-4.890191 1.0961467-10.141662.4255628-14.360904-2.3470434-4.219241-2.7726062-7.109486-7.4409014-7.019166-12.4573843s3.096691-9.775049 7.715922-11.5417795c2.309615-.8769173 1.30319-4.6167118-1.032231-3.7268986z" fill="#89d2f6" fillRule="nonzero"/><path d="m151.853246 82.5311846c-6.412731-.1934376-13.031907.6447922-18.709174 3.8171695-4.864385 2.7081271-8.902986 7.1442971-10.39972 12.5863428-3.122497 11.4515081 5.47082 23.5091221 17.470497 23.7928301 5.328889.128959 10.89003-2.424418 13.070616-7.518276 2.180587-5.093858.825785-10.729342-2.696701-14.585199-3.832155-4.2040445-9.935217-5.7128581-15.431843-4.9391075-5.819198.8124381-11.006155 4.1395656-15.044756 8.2791315-9.18685 9.375277-13.135131 23.044871-10.902933 35.889131.425795 2.45021 4.154727 1.405647 3.728932-1.031668-1.625763-9.401069.606435-19.292181 5.909519-27.210228 5.303083-7.918048 14.399612-14.7270531 24.038062-11.464405 4.103116 1.392751 7.251418 4.926212 7.522379 9.33659.27096 4.410379-2.580576 7.969631-6.915943 9.027091-4.335368 1.057459-8.993307-.386876-12.309347-3.211065-3.728931-3.185274-5.599849-7.918048-5.186957-12.792677.451601-5.3388786 3.961184-9.7750486 8.451386-12.4702798 5.225666-3.1336898 11.406144-3.8300653 17.39308-3.6495235 2.490256.077375 2.490256-3.7913779 0-3.8687529z" fill="#89d2f6" fillRule="nonzero"/></g><g stroke="#164290" strokeWidth="2" transform="translate(252 266)"><path d="m61.9350901 35.5176951c-2.4160508 17.0236981-18.1717867 28.8657116-35.1869533 26.4484494-17.01516665-2.4172623-28.85124555-18.1808981-26.4351947-35.2045962 2.41605085-17.02369803 18.1717867-28.86571155 35.1869533-26.44844929 17.0151667 2.41726226 28.8383942 18.18089809 26.4223434 35.20459609z"/><path d="m79.0903363 36.4434552c2.4417535-16.9979825 18.1717867-28.81428052 35.1741017-26.3970183 17.015167 2.4172623 28.838395 18.1808981 26.422344 35.2045962-2.416051 17.023698-18.171787 28.8528538-35.186954 26.4355915-10.3067698-1.4657867-19.3541092-8.164689-23.7878195-17.5765825-2.2232808-4.7445201-3.2256849-10.016209-2.8786989-15.2493247.115662-1.6457956.4626481-2.0058133-.7582287-3.0344356-1.1437688-.9643333-3.2128336-1.4272133-4.6264804-1.7486578-3.0843202-.7071778-6.3742618-.6043156-9.4071767.3343022-.4883507.1542934-.96385.3343023-1.4264981.5271689"/></g></g></svg>