<svg xmlns="http://www.w3.org/2000/svg" width="207.764" height="87.337" viewBox="0 0 207.764 87.337">
  <g id="txt_nuevo" transform="translate(-444.001 192)">
    <path id="Path_50" data-name="Path 50" d="M196.972,58.93c-14.725,2.367-15.372-1.662-30.1.7s-14.077,6.4-28.8,8.762-15.373-1.662-30.1.7-14.077,6.4-28.8,8.762S63.8,76.2,49.07,78.569s-14.08,6.4-28.807,8.763c-.97.156-2.048-3.864-2.981-3.96-.966-.1-2.839,3.61-3.725,3.272s.178-4.362-.6-4.923S8.707,83.442,8.1,82.7s2.337-3.675,1.94-4.561c-.383-.857-4.538-.62-4.694-1.591C4.9,73.777,8.928,73.13,8.483,70.363s-4.473-2.12-4.918-4.888S7.149,62.062,6.7,59.3s-4.473-2.121-4.918-4.89,3.583-3.417,3.138-6.188S.45,46.1,0,43.325c-.156-.971,3.864-2.048,3.959-2.982.1-.966-3.61-2.838-3.271-3.724s4.362.177,4.922-.6S3.894,31.768,4.64,31.16,8.315,33.5,9.2,33.1c.856-.383.62-4.538,1.59-4.694,14.725-2.367,15.372,1.661,30.1-.7s14.077-6.4,28.8-8.762,15.373,1.662,30.1-.7,14.078-6.395,28.8-8.762,15.374,1.662,30.1-.706S172.774,2.371,187.5,0c.971-.156,2.048,3.864,2.982,3.959.966.1,2.838-3.61,3.724-3.271s-.177,4.362.6,4.922,4.254-1.721,4.862-.975-2.336,3.676-1.94,4.562c.383.856,4.538.62,4.694,1.591.445,2.766-3.583,3.414-3.139,6.181s4.474,2.12,4.918,4.887-3.583,3.414-3.139,6.18,4.474,2.121,4.918,4.889-3.583,3.418-3.137,6.188,4.473,2.123,4.919,4.894c.156.97-3.865,2.048-3.96,2.981-.1.966,3.61,2.838,3.271,3.725s-4.362-.178-4.922.6,1.721,4.253.975,4.861-3.675-2.336-4.561-1.939c-.857.383-.62,4.538-1.591,4.694" transform="translate(444 -192)" fill="#fdc800"/>
    <path id="Path_51" data-name="Path 51" d="M46.848,33.921l7.236-1.163,6.178,38.431-7.237,1.163.009.055-21.6-23.13,4.159,25.877-7.237,1.163L22.186,37.942l7.182-1.155L50.946,59.414Z" transform="translate(444 -192)" fill="#2752b0"/>
    <path id="Path_52" data-name="Path 52" d="M68.91,42.074l2.273,14.144a7.932,7.932,0,0,0,2.537,4.935,6.019,6.019,0,0,0,5.15,1.254,6.42,6.42,0,0,0,4.609-2.992,7.9,7.9,0,0,0,1.083-5.684l-2.22-13.816,6.633-1.066,4.353,27.082-5.976.961-1.029-3.6a12.929,12.929,0,0,1-8.5,5.529,10.339,10.339,0,0,1-8.66-2.265q-3.669-3.064-4.656-9.205l-2.282-14.2Z" transform="translate(444 -192)" fill="#2752b0"/>
    <path id="Path_53" data-name="Path 53" d="M103.152,52.879a6.027,6.027,0,0,0,3.137,3.77,9.261,9.261,0,0,0,5.847.691A13.087,13.087,0,0,0,116.083,56a7.69,7.69,0,0,0,2.885-2.348l4.955,3.534a13.183,13.183,0,0,1-4.684,4.1A19.409,19.409,0,0,1,113,63.443q-6.909,1.11-11.512-2.171t-5.663-9.86a14.034,14.034,0,0,1,2.281-10.827q3.285-4.576,9.809-5.626,6.963-1.119,11.383,2.586t4.956,11.941Zm13.8-7.9a5.5,5.5,0,0,0-2.823-3.567,8.164,8.164,0,0,0-5.041-.568,8.652,8.652,0,0,0-4.608,2.118,6.713,6.713,0,0,0-2.111,4.361Z" transform="translate(444 -192)" fill="#2752b0"/>
    <path id="Path_54" data-name="Path 54" d="M154.26,28.3l-7.143,29.042L139.881,58.5,123.943,33.172,131.234,32l5.164,8.337,6,10.733,2.3-11.954,2.274-9.645Z" transform="translate(444 -192)" fill="#2752b0"/>
    <path id="Path_55" data-name="Path 55" d="M181.01,27.655a14.053,14.053,0,0,1,5.532,9.4,14.191,14.191,0,0,1-2.22,10.676,13.669,13.669,0,0,1-9.605,5.678q-6.414,1.031-10.871-2.387a14.247,14.247,0,0,1-5.428-9.447,14.226,14.226,0,0,1,2.225-10.65,13.486,13.486,0,0,1,9.49-5.687,13.75,13.75,0,0,1,10.877,2.414m-14.865,6.888a8.7,8.7,0,0,0-1.039,5.96,8.59,8.59,0,0,0,2.85,5.306,7.516,7.516,0,0,0,10.8-1.736,8.585,8.585,0,0,0,1.043-5.931,8.471,8.471,0,0,0-2.954-5.262,7.275,7.275,0,0,0-10.7,1.663" transform="translate(444 -192)" fill="#2752b0"/>
  </g>
</svg>
