<svg viewBox="0 0 141 29" fill="none" xmlns="http://www.w3.org/2000/svg">
    <path
        d="M36.7828 13.5431C35.5256 12.3586 33.8501 11.7437 32.1394 11.8387C29.932 11.8387 28.7137 12.536 28.7137 13.7371C28.7137 14.9764 29.8177 15.6737 32.2151 15.8289C35.7551 16.0611 40.2461 16.8742 40.2461 21.9485C40.2461 25.3185 37.5437 28.2234 32.1775 28.2234C29.2088 28.2234 26.2405 27.7201 23.5 24.8147L25.7831 21.4447C27.1152 22.9556 30.1602 24.0786 32.2532 24.1174C34.0042 24.1562 35.6403 23.2267 35.6403 21.8322C35.6403 20.5152 34.575 19.9721 31.9107 19.818C28.3711 19.5469 24.1465 18.23 24.1465 13.8923C24.1465 9.47643 28.6375 7.92725 32.0631 7.92725C34.9938 7.92725 37.2011 8.50812 39.3709 10.4447L36.7828 13.5431Z"
        fill="#ffffff" />
    <path
        d="M47.8603 8.46875V18.46C47.8603 21.365 49.4206 23.5731 52.3894 23.5731C55.2437 23.5731 57.1848 21.1333 57.1848 18.2278V8.46875H61.7875V27.601H57.6412L57.3367 25.0059C55.3957 26.9426 53.6071 27.8721 50.9804 27.8721C46.4895 27.8721 43.2168 24.4251 43.2168 18.4988V8.46875H47.8603Z"
        fill="#ffffff" />
    <path d="M70.5052 0.489258V27.5641H65.9004V0.489258H70.5052Z" fill="#ffffff" />
    <path fillRule="evenodd" clipRule="evenodd"
        d="M93.9107 8.4683H89.3054V11.1022C88.239 9.20383 85.8421 8.00328 83.3303 8.00328C77.8497 7.96289 73.5488 11.4104 73.5488 17.9946C73.5488 24.6978 77.6591 28.1841 83.2159 28.1453C85.3094 28.1065 88.2395 27.0218 89.3054 24.7754V27.5639H93.9107V8.4683ZM83.7487 23.8073C80.6661 23.8073 78.1919 21.6379 78.1919 17.9969H78.1925C78.1925 14.356 80.6661 12.2259 83.7487 12.2259C91.0565 12.2259 91.0565 23.8073 83.7487 23.8073Z"
        fill="#ffffff" />
    <path fillRule="evenodd" clipRule="evenodd"
        d="M117.321 27.5641V0.489258L112.673 0.491915V11.0678C111.57 9.09187 108.487 8.00771 106.508 8.00771C101.028 8.00771 96.9551 11.4148 96.9551 17.999C96.9551 24.2701 101.103 27.9903 106.622 27.9903C108.906 27.9903 111.228 27.2154 112.673 24.9302V27.5641H117.321ZM106.929 23.6133C103.963 23.6133 101.603 21.3286 101.603 17.9969L101.6 17.9964C101.6 14.5494 103.96 12.4193 106.929 12.4193C109.946 12.4492 112.375 14.9463 112.375 18.0163C112.375 21.0863 109.946 23.5834 106.929 23.6133Z"
        fill="#ffffff" />
    <path fillRule="evenodd" clipRule="evenodd"
        d="M130.22 27.9908C136.309 27.9908 140.001 23.5362 140.001 18.0362C140.001 12.5755 136.157 8.08154 130.182 8.08154C124.206 8.08154 120.477 12.5744 120.477 18.0362C120.477 23.5367 124.13 27.9908 130.22 27.9908ZM130.218 23.6524C126.831 23.6524 125.119 20.9409 125.119 18.036C125.119 15.1699 126.871 12.3808 130.218 12.3808C133.339 12.3808 135.318 15.1694 135.318 18.036C135.318 20.942 133.605 23.6524 130.218 23.6524Z"
        fill="#ffffff" />
    <path
        d="M20.5731 13.6575C20.5783 11.6593 19.7301 9.7575 18.2488 8.44604C14.5867 5.2194 9.28457 4.80214 5.17861 7.41746C1.07264 10.0328 -0.876003 15.0685 0.375047 19.8308C1.6261 24.5932 5.784 27.9674 10.6246 28.1486C10.7607 28.1535 10.8966 28.156 11.0324 28.156H11.0523C12.12 28.1539 12.9844 27.2725 12.9844 26.1859V24.5623C12.9841 23.9405 12.4889 23.4365 11.8779 23.4362C11.5196 23.4362 11.1614 23.4234 10.7906 23.4101C8.28059 23.315 6.05973 21.7279 5.1197 19.3574C4.17968 16.9869 4.69597 14.2756 6.43805 12.4341C7.63563 11.1587 9.29542 10.4401 11.0288 10.4464C12.2893 10.3859 13.5271 10.8035 14.5025 11.6183C15.411 12.3752 15.9302 13.5128 15.9124 14.7076V15.6871C16.0169 17.0688 17.6389 19.9121 20.5408 22.7825L20.5705 22.8128L20.5731 13.6575Z"
        fill="#ffffff" />
    <path
        d="M20.078 23.2759C18.4231 21.6943 17.0218 19.8588 15.9249 17.8359L15.916 27.7454C15.916 28.0096 16.1264 28.2237 16.386 28.2237H20.102C20.3616 28.2237 20.572 28.0096 20.572 27.7454V23.7648L20.078 23.2759Z"
        fill="#F1E773" />
</svg>