<svg width="571" height="124" viewBox="0 0 571 124" fill="none" xmlns="http://www.w3.org/2000/svg">
    <path
        d="M150.018 54.5269C144.891 49.7286 138.057 47.2373 131.08 47.6224C122.077 47.6224 117.108 50.4471 117.108 55.3127C117.108 60.3333 121.61 63.158 131.389 63.7866C145.827 64.7274 164.144 68.0214 164.144 88.5776C164.144 102.229 153.122 113.997 131.235 113.997C119.127 113.997 107.021 111.958 95.8434 100.188L105.155 86.5366C110.588 92.6574 123.008 97.2065 131.544 97.3637C138.685 97.5209 145.358 93.7554 145.358 88.1061C145.358 82.7711 141.013 80.5709 130.147 79.9465C115.711 78.8485 98.4802 73.5135 98.4802 55.9413C98.4802 38.0526 116.797 31.7769 130.769 31.7769C142.722 31.7769 151.724 34.13 160.574 41.9753L150.018 54.5269Z"
        fill="#2752B0" />
    <path
        d="M195.197 33.9722V74.4472C195.197 86.2152 201.561 95.1606 213.67 95.1606C225.311 95.1606 233.228 85.2765 233.228 73.5064V33.9722H252.001V111.478H235.09L233.848 100.965C225.931 108.81 218.636 112.576 207.923 112.576C189.606 112.576 176.259 98.6117 176.259 74.6044V33.9722H195.197Z"
        fill="#2752B0" />
    <path d="M287.557 1.646V111.327H268.776V1.646H287.557Z" fill="#2752B0" />
    <path fill-rule="evenodd" clip-rule="evenodd"
        d="M383.02 33.9692H364.237V44.6391C359.888 36.9489 350.112 32.0854 339.867 32.0854C317.514 31.9218 299.973 45.8878 299.973 72.5605C299.973 99.7154 316.737 113.839 339.401 113.681C347.939 113.524 359.89 109.13 364.237 100.03V111.326H383.02V33.9692ZM341.574 96.1077C329.001 96.1077 318.91 87.3195 318.91 72.5698H318.912C318.912 57.82 329.001 49.1911 341.574 49.1911C371.379 49.1911 371.379 96.1077 341.574 96.1077Z"
        fill="#2752B0" />
    <path fill-rule="evenodd" clip-rule="evenodd"
        d="M478.496 111.327V1.646L459.54 1.65676V44.5001C455.04 36.4955 442.467 32.1035 434.395 32.1035C412.045 32.1035 395.432 45.9059 395.432 72.5786C395.432 97.9831 412.351 113.054 434.86 113.054C444.173 113.054 453.643 109.915 459.54 100.657V111.327H478.496ZM436.112 95.3221C424.012 95.3221 414.387 86.0666 414.387 72.5699L414.377 72.5678C414.377 58.6039 424.001 49.9749 436.112 49.9749C448.415 50.0961 458.325 60.2118 458.325 72.6485C458.325 85.0852 448.415 95.2009 436.112 95.3221Z"
        fill="#2752B0" />
    <path fill-rule="evenodd" clip-rule="evenodd"
        d="M531.106 113.055C555.942 113.055 571 95.0091 571 72.7284C571 50.607 555.322 32.4019 530.95 32.4019C506.578 32.4019 491.367 50.6027 491.367 72.7284C491.367 95.0112 506.27 113.055 531.106 113.055ZM531.1 95.4795C517.286 95.4795 510.3 84.4953 510.3 72.7274C510.3 61.1166 517.445 49.818 531.1 49.818C543.828 49.818 551.9 61.1145 551.9 72.7274C551.9 84.4996 544.914 95.4795 531.1 95.4795Z"
        fill="#2752B0" />
    <path
        d="M83.909 54.9906C83.9302 46.8961 80.4706 39.1918 74.429 33.879C59.493 20.8078 37.8678 19.1174 21.1213 29.7122C4.37485 40.3069 -3.57284 60.7067 1.52966 79.9992C6.63216 99.2916 23.5904 112.961 43.3331 113.695C43.8883 113.715 44.4428 113.725 44.9965 113.725H45.0775C49.4321 113.716 52.9579 110.146 52.9579 105.744V99.1666C52.9567 96.6475 50.9368 94.6057 48.4448 94.6045C46.9837 94.6045 45.5226 94.5529 44.0104 94.499C33.773 94.1138 24.715 87.6842 20.8811 78.0813C17.0471 68.4784 19.1529 57.4946 26.258 50.0346C31.1425 44.8682 37.912 41.957 44.9816 41.9826C50.1228 41.7375 55.1711 43.429 59.1494 46.7298C62.8547 49.7963 64.9723 54.4048 64.9 59.2448V63.2127C65.326 68.8103 71.9413 80.3285 83.777 91.9564L83.8984 92.0791L83.909 54.9906Z"
        fill="#2752B0" />
    <path
        d="M81.8876 93.9558C75.138 87.5489 69.4225 80.113 64.9489 71.9185L64.9127 112.062C64.9127 113.132 65.7709 114 66.8295 114H81.9856C83.0443 114 83.9025 113.132 83.9025 112.062V95.9365L81.8876 93.9558Z"
        fill="#F1E773" />
</svg>