<svg width="960" height="1200" viewBox="0 0 960 1200" fill="none" xmlns="http://www.w3.org/2000/svg">
<g clip-path="url(#clip0_5671_27850)">
<path d="M202 207.51L199.92 207.53C199.82 197.76 191.79 189.9 182.02 190L182 187.92C191.77 187.82 199.63 179.79 199.53 170.02L201.61 170C201.71 179.77 209.74 187.63 219.51 187.53L219.53 189.61C209.76 189.71 201.9 197.74 202 207.51ZM188.35 188.9C194.19 190.81 198.86 195.38 200.89 201.18C202.8 195.34 207.37 190.67 213.17 188.64C207.33 186.73 202.66 182.16 200.63 176.35C198.71 182.19 194.15 186.86 188.34 188.89L188.35 188.9Z" fill="#F6DF6B"/>
<path d="M194.84 1063.46H193.81C193.76 1058.66 189.81 1054.8 185 1054.85V1053.82C189.8 1053.77 193.66 1049.82 193.61 1045.01H194.64C194.69 1049.81 198.64 1053.67 203.45 1053.62V1054.65C198.65 1054.7 194.79 1058.65 194.84 1063.46ZM188.13 1054.3C191 1055.24 193.3 1057.49 194.3 1060.34C195.24 1057.47 197.49 1055.17 200.34 1054.17C197.47 1053.23 195.17 1050.98 194.17 1048.13C193.23 1051.01 190.98 1053.3 188.13 1054.3Z" fill="#F6DF6B"/>
<path d="M241.84 154.46H240.81C240.76 149.66 236.81 145.8 232 145.85V144.82C236.8 144.77 240.66 140.82 240.61 136.01H241.64C241.69 140.81 245.64 144.67 250.45 144.62V145.65C245.65 145.7 241.79 149.65 241.84 154.46ZM235.13 145.3C238 146.24 240.3 148.49 241.3 151.34C242.24 148.47 244.49 146.17 247.34 145.17C244.47 144.23 242.17 141.98 241.17 139.13C240.23 142.01 237.98 144.3 235.13 145.3Z" fill="#F6DF6B"/>
<path d="M761 651.51L758.92 651.53C758.82 641.76 750.79 633.9 741.02 634L741 631.92C750.77 631.82 758.63 623.79 758.53 614.02L760.61 614C760.71 623.77 768.74 631.63 778.51 631.53L778.53 633.61C768.76 633.71 760.9 641.74 761 651.51ZM747.35 632.9C753.19 634.81 757.86 639.38 759.89 645.18C761.8 639.34 766.37 634.67 772.17 632.64C766.33 630.73 761.66 626.16 759.63 620.35C757.71 626.19 753.15 630.86 747.34 632.89L747.35 632.9Z" fill="#F6DF6B"/>
</g>
<defs>
<clipPath id="clip0_5671_27850">
<rect width="596.53" height="927.47" fill="white" transform="translate(182 136)"/>
</clipPath>
</defs>
</svg>
