<svg width="1635" height="571" viewBox="0 0 1635 571" fill="none" xmlns="http://www.w3.org/2000/svg">
<g clip-path="url(#clip0_5633_27913)">
<path opacity="0.42" d="M290.331 336.74H91.7109C91.7109 336.74 125.361 242.8 217.891 308.7C217.891 308.7 284.911 263.53 290.331 336.74Z" stroke="white" stroke-miterlimit="10"/>
<g opacity="0.51">
<path d="M152.648 8.0498C163.648 119.05 269.168 208.74 318.208 233.78C434.588 293.2 569.308 303.52 699.948 306.24C736.478 307 773.128 307.24 809.428 303.06C846.038 298.84 881.958 290.15 918.028 282.61C1022.86 260.69 1129.69 248.37 1236.75 245.84C1277.81 244.87 1320.47 245.68 1357.5 263.45C1403.04 285.3 1434.23 331.15 1446.15 380.24C1458.07 429.33 1452.5 481.29 1438.92 529.95" stroke="#07A0BB" stroke-miterlimit="10"/>
<path d="M1438.65 530.05L1434.65 519.05" stroke="#07A0BB" stroke-linecap="round" stroke-linejoin="bevel"/>
<path d="M1448.65 524.05L1438.65 530.05" stroke="#07A0BB" stroke-linecap="round" stroke-linejoin="bevel"/>
</g>
<path d="M1535.49 481.62H1534.46C1534.41 476.81 1530.44 472.92 1525.62 472.97V471.94C1530.44 471.89 1534.32 467.92 1534.27 463.1H1535.3C1535.35 467.91 1539.32 471.8 1544.14 471.75V472.78C1539.33 472.83 1535.44 476.8 1535.49 481.62ZM1528.75 472.42C1531.64 473.37 1533.94 475.62 1534.95 478.49C1535.9 475.6 1538.15 473.3 1541.02 472.29C1538.13 471.34 1535.83 469.09 1534.83 466.22C1533.88 469.11 1531.63 471.41 1528.76 472.42H1528.75Z" fill="white"/>
<path d="M289.491 471.62H288.461C288.411 466.81 284.441 462.92 279.621 462.97V461.94C284.441 461.89 288.321 457.92 288.271 453.1H289.301C289.351 457.91 293.321 461.8 298.141 461.75V462.78C293.331 462.83 289.441 466.8 289.491 471.62ZM282.751 462.42C285.641 463.37 287.941 465.62 288.951 468.49C289.901 465.6 292.151 463.3 295.021 462.29C292.131 461.34 289.831 459.09 288.831 456.22C287.881 459.11 285.631 461.41 282.761 462.42H282.751Z" fill="white"/>
<path opacity="0.42" d="M1513.33 206.74H1314.71C1314.71 206.74 1348.36 112.8 1440.89 178.7C1440.89 178.7 1507.91 133.53 1513.33 206.74Z" stroke="white" stroke-miterlimit="10"/>
<path d="M1427.49 377.62H1426.46C1426.41 372.81 1422.44 368.92 1417.62 368.97V367.94C1422.44 367.89 1426.32 363.92 1426.27 359.1H1427.3C1427.35 363.91 1431.32 367.8 1436.14 367.75V368.78C1431.33 368.83 1427.44 372.8 1427.49 377.62ZM1420.75 368.42C1423.64 369.37 1425.94 371.62 1426.95 374.49C1427.9 371.6 1430.15 369.3 1433.02 368.29C1430.13 367.34 1427.83 365.09 1426.83 362.22C1425.88 365.11 1423.63 367.41 1420.76 368.42H1420.75Z" fill="white"/>
</g>
<defs>
<clipPath id="clip0_5633_27913">
<rect width="1453.15" height="522.55" fill="white" transform="translate(91 8)"/>
</clipPath>
</defs>
</svg>
