<svg width="1635" height="571" viewBox="0 0 1635 571" fill="none" xmlns="http://www.w3.org/2000/svg">
<g clip-path="url(#clip0_5644_27960)">
<path opacity="0.31" d="M205.451 108.82H72.7109C72.7109 108.82 114.751 -8.52954 230.341 73.7905C230.341 73.7905 302.681 25.0305 318.311 91.6105" stroke="url(#paint0_linear_5644_27960)" stroke-miterlimit="10"/>
<path opacity="0.31" d="M366.02 119.91H196.48C196.48 119.91 233.84 58.6095 305.07 99.4795C305.07 99.4795 361.38 57.4195 366.01 119.91H366.02Z" stroke="url(#paint1_linear_5644_27960)" stroke-miterlimit="10"/>
<path opacity="0.31" d="M1103.87 482.1C1112.85 470.19 1122.2 458.94 1135.12 449.81C1149.67 439.53 1165.49 431.91 1183.56 431.76C1194.59 431.67 1205.46 434.38 1216.48 434.9C1244.42 436.22 1271.22 423.46 1294.13 407.42C1317.04 391.38 1337.41 371.84 1360.92 356.69C1375.97 347 1395.65 339.18 1411.15 348.14C1417.99 352.09 1422.82 358.76 1429.23 363.37C1447.79 376.7 1474.31 369.45 1493.08 356.42C1511.84 343.38 1527.01 325.21 1547.31 314.72C1558.89 308.73 1572.38 305.47 1585.09 308.35C1597.8 311.23 1609.34 321.19 1611.57 334.04C1615.02 353.9 1597.15 370.41 1581.1 382.61C1548.25 407.58 1512.59 433.62 1471.37 435.42C1445.09 436.57 1418.08 427.64 1392.9 435.23C1350.31 448.07 1329.62 502.88 1286.09 512.07C1265.35 516.45 1243.96 509.18 1222.78 509.8C1188.1 510.81 1158.03 532.37 1127.41 548.67C1096.79 564.97 1057.78 576.07 1028.73 557.1C1029.43 557.55 1035.53 553.09 1036.15 552.7C1057.29 539.14 1074.48 520.63 1089.79 500.91C1094.68 494.61 1099.23 488.28 1103.88 482.12L1103.87 482.1Z" stroke="url(#paint2_linear_5644_27960)" stroke-miterlimit="10"/>
</g>
<defs>
<linearGradient id="paint0_linear_5644_27960" x1="72.0009" y1="76.6605" x2="318.801" y2="76.6605" gradientUnits="userSpaceOnUse">
<stop stop-color="white"/>
<stop offset="0.28" stop-color="#EFF7FB"/>
<stop offset="0.62" stop-color="#E4F1F9"/>
<stop offset="1" stop-color="#E1F0F9"/>
</linearGradient>
<linearGradient id="paint1_linear_5644_27960" x1="195.59" y1="102.67" x2="366.56" y2="102.67" gradientUnits="userSpaceOnUse">
<stop stop-color="white"/>
<stop offset="0.28" stop-color="#EFF7FB"/>
<stop offset="0.62" stop-color="#E4F1F9"/>
<stop offset="1" stop-color="#E1F0F9"/>
</linearGradient>
<linearGradient id="paint2_linear_5644_27960" x1="1028.46" y1="437.17" x2="1612.51" y2="437.17" gradientUnits="userSpaceOnUse">
<stop stop-color="white"/>
<stop offset="0.28" stop-color="#EFF7FB"/>
<stop offset="0.62" stop-color="#E4F1F9"/>
<stop offset="1" stop-color="#E1F0F9"/>
</linearGradient>
<clipPath id="clip0_5644_27960">
<rect width="1635" height="571" fill="white"/>
</clipPath>
</defs>
</svg>
