<svg width="1920" height="600" viewBox="0 0 1920 600" fill="none" xmlns="http://www.w3.org/2000/svg">
<g clip-path="url(#clip0_5654_27850)">
<path d="M1826.33 127.57H1627.71C1627.71 127.57 1661.36 33.6299 1753.89 99.5299C1753.89 99.5299 1820.91 54.3599 1826.33 127.57Z" stroke="#07A0BB" stroke-miterlimit="10"/>
<path d="M287.331 450.57H88.7109C88.7109 450.57 122.361 356.63 214.891 422.53C214.891 422.53 281.911 377.36 287.331 450.57Z" stroke="#07A0BB" stroke-miterlimit="10"/>
<path d="M539.702 93.51C539.802 83.74 531.942 75.71 522.172 75.61L522.192 73.53C531.962 73.63 539.992 65.77 540.092 56L542.172 56.02C542.072 65.79 549.932 73.82 559.702 73.92L559.682 76C549.912 75.9 541.882 83.76 541.782 93.53L539.702 93.51ZM553.352 74.9C547.552 72.86 542.982 68.2 541.062 62.36C539.032 68.16 534.362 72.73 528.522 74.65C534.322 76.68 538.892 81.35 540.802 87.19C542.832 81.39 547.502 76.82 553.342 74.91L553.352 74.9Z" fill="#F6DF6B"/>
<path d="M1517.7 503.51C1517.8 493.74 1509.94 485.71 1500.17 485.61L1500.19 483.53C1509.96 483.63 1517.99 475.77 1518.09 466L1520.17 466.02C1520.07 475.79 1527.93 483.82 1537.7 483.92L1537.68 486C1527.91 485.9 1519.88 493.76 1519.78 503.53L1517.7 503.51ZM1531.35 484.9C1525.55 482.86 1520.98 478.2 1519.06 472.36C1517.03 478.16 1512.36 482.73 1506.52 484.65C1512.32 486.68 1516.89 491.35 1518.8 497.19C1520.83 491.39 1525.5 486.82 1531.34 484.91L1531.35 484.9Z" fill="#F6DF6B"/>
<path d="M1382.37 146.71C1382.47 136.94 1374.61 128.91 1364.84 128.81L1364.86 126.73C1374.63 126.83 1382.66 118.97 1382.76 109.2L1384.84 109.22C1384.74 118.99 1392.6 127.02 1402.37 127.12L1402.35 129.2C1392.58 129.1 1384.55 136.96 1384.45 146.73L1382.37 146.71ZM1396.02 128.09C1390.22 126.05 1385.65 121.39 1383.73 115.55C1381.7 121.35 1377.03 125.92 1371.19 127.84C1376.99 129.87 1381.56 134.54 1383.47 140.38C1385.5 134.58 1390.17 130.01 1396.01 128.1L1396.02 128.09Z" fill="#F6DF6B"/>
<path d="M305.061 535.06C305.161 525.29 297.301 517.26 287.531 517.16L287.551 515.08C297.321 515.18 305.351 507.32 305.451 497.55L307.531 497.57C307.431 507.34 315.291 515.37 325.061 515.47L325.041 517.55C315.271 517.45 307.241 525.31 307.141 535.08L305.061 535.06ZM318.711 516.44C312.911 514.4 308.341 509.74 306.421 503.9C304.391 509.7 299.721 514.27 293.881 516.19C299.681 518.22 304.251 522.89 306.161 528.73C308.191 522.93 312.861 518.36 318.701 516.45L318.711 516.44Z" fill="#F6DF6B"/>
</g>
<defs>
<clipPath id="clip0_5654_27850">
<rect width="1738.87" height="479.08" fill="white" transform="translate(88 56)"/>
</clipPath>
</defs>
</svg>
