<svg width="1635" height="571" viewBox="0 0 1635 571" fill="none" xmlns="http://www.w3.org/2000/svg">
<g opacity="0.51">
<path d="M161.039 25.0498C172.039 136.05 277.559 225.74 326.599 250.78C442.979 310.2 577.699 320.52 708.339 323.24C744.869 324 781.519 324.24 817.819 320.06C854.429 315.84 890.349 307.15 926.419 299.61C1031.25 277.69 1138.08 265.37 1245.14 262.84C1286.2 261.87 1328.86 262.68 1365.89 280.45C1411.43 302.3 1442.62 348.15 1454.54 397.24C1466.46 446.33 1460.89 498.29 1447.31 546.95" stroke="#07A0BB" stroke-miterlimit="10"/>
<path d="M1447.04 547.05L1443.04 536.05" stroke="#07A0BB" stroke-linecap="round" stroke-linejoin="bevel"/>
<path d="M1457.04 541.05L1447.04 547.05" stroke="#07A0BB" stroke-linecap="round" stroke-linejoin="bevel"/>
</g>
<g opacity="0.42">
<path d="M866.83 395.291H755.48C746.38 395.291 739 402.671 739 411.771V456.221C739 490.201 766.54 517.741 800.52 517.741H821.79C855.77 517.741 883.31 490.201 883.31 456.221V411.771C883.31 402.671 875.93 395.291 866.83 395.291Z" stroke="#F1F8FD" stroke-miterlimit="10"/>
<path d="M817.919 454.33V468.96C817.919 471.04 816.229 472.73 814.149 472.73H808.169C806.089 472.73 804.399 471.04 804.399 468.96V454.33C801.409 452.21 799.449 448.74 799.449 444.79C799.449 438.32 804.699 433.07 811.169 433.07C817.639 433.07 822.889 438.32 822.889 444.79C822.889 448.73 820.929 452.21 817.939 454.33H817.919Z" stroke="#F1F8FD" stroke-miterlimit="10"/>
<path d="M810.909 338.001C788.089 338.131 769.789 357.001 769.789 379.821V395.291H781.599V379.741C781.599 363.471 794.589 349.971 810.859 349.811C827.289 349.651 840.709 362.971 840.709 379.361V395.291H852.519V379.361C852.519 356.471 833.829 337.861 810.909 338.001Z" stroke="#F1F8FD" stroke-miterlimit="10"/>
</g>
<path d="M1510.88 198.93H1509.85C1509.8 194.12 1505.83 190.23 1501.01 190.28V189.25C1505.83 189.2 1509.71 185.23 1509.66 180.41H1510.69C1510.74 185.22 1514.71 189.11 1519.53 189.06V190.09C1514.72 190.14 1510.83 194.11 1510.88 198.93ZM1504.14 189.73C1507.03 190.68 1509.33 192.93 1510.34 195.8C1511.29 192.91 1513.54 190.61 1516.41 189.6C1513.52 188.65 1511.22 186.4 1510.22 183.53C1509.27 186.42 1507.02 188.72 1504.15 189.73H1504.14Z" fill="white"/>
<path d="M126.882 469.93H125.852C125.802 465.12 121.832 461.23 117.012 461.28V460.25C121.832 460.2 125.712 456.23 125.662 451.41H126.692C126.742 456.22 130.712 460.11 135.532 460.06V461.09C130.722 461.14 126.832 465.11 126.882 469.93ZM120.142 460.73C123.032 461.68 125.332 463.93 126.342 466.8C127.292 463.91 129.542 461.61 132.412 460.6C129.522 459.65 127.222 457.4 126.222 454.53C125.272 457.42 123.022 459.72 120.152 460.73H120.142Z" fill="white"/>
</svg>
