<svg width="1635" height="571" viewBox="0 0 1635 571" fill="none" xmlns="http://www.w3.org/2000/svg">
<g clip-path="url(#clip0_5633_27899)">
<path d="M1506.53 235.19C1506.63 225.42 1498.77 217.39 1489 217.29L1489.02 215.21C1498.79 215.31 1506.82 207.45 1506.92 197.68L1509 197.7C1508.9 207.47 1516.76 215.5 1526.53 215.6L1526.51 217.68C1516.74 217.58 1508.71 225.44 1508.61 235.21L1506.53 235.19ZM1520.18 216.57C1514.38 214.53 1509.81 209.87 1507.89 204.03C1505.86 209.83 1501.19 214.4 1495.35 216.32C1501.15 218.35 1505.72 223.02 1507.63 228.86C1509.66 223.06 1514.33 218.49 1520.17 216.58L1520.18 216.57Z" fill="#F6DF6B"/>
<path d="M126.53 509.19C126.63 499.42 118.77 491.39 109 491.29L109.02 489.21C118.79 489.31 126.82 481.45 126.92 471.68L129 471.7C128.9 481.47 136.76 489.5 146.53 489.6L146.51 491.68C136.74 491.58 128.71 499.44 128.61 509.21L126.53 509.19ZM140.18 490.57C134.38 488.53 129.81 483.87 127.89 478.03C125.86 483.83 121.19 488.4 115.35 490.32C121.15 492.35 125.72 497.02 127.63 502.86C129.66 497.06 134.33 492.49 140.17 490.58L140.18 490.57Z" fill="#F6DF6B"/>
<g opacity="0.51">
<path d="M162.809 24.0498C173.809 135.05 279.329 224.74 328.369 249.78C444.749 309.2 579.469 319.52 710.109 322.24C746.639 323 783.289 323.24 819.589 319.06C856.199 314.84 892.119 306.15 928.189 298.61C1033.02 276.69 1139.85 264.37 1246.91 261.84C1287.97 260.87 1330.63 261.68 1367.66 279.45C1413.2 301.3 1444.39 347.15 1456.31 396.24C1468.23 445.33 1462.66 497.29 1449.08 545.95" stroke="#07A0BB" stroke-miterlimit="10"/>
<path d="M1448.81 546.05L1444.81 535.05" stroke="#07A0BB" stroke-linecap="round" stroke-linejoin="bevel"/>
<path d="M1458.81 540.05L1448.81 546.05" stroke="#07A0BB" stroke-linecap="round" stroke-linejoin="bevel"/>
</g>
</g>
<defs>
<clipPath id="clip0_5633_27899">
<rect width="1417.53" height="522.55" fill="white" transform="translate(109 24)"/>
</clipPath>
</defs>
</svg>
